<svg width="1118" height="1158" viewBox="0 0 1118 1158" fill="none" xmlns="http://www.w3.org/2000/svg">
<g opacity="0.5" filter="url(#filter0_f_4235_10)">
<mask id="mask0_4235_10" style="mask-type:alpha" maskUnits="userSpaceOnUse" x="189" y="255" width="794" height="652">
<path d="M686.884 503.695L686.423 504.032L686.818 504.444L881.628 707.508C884.199 710.188 886.027 713.487 886.928 717.067C887.829 720.648 887.769 724.381 886.756 727.886C885.744 731.391 883.816 734.543 881.168 737.022C878.521 739.501 875.247 741.218 871.682 741.999L871.668 742.002L215.432 905.193C215.427 905.194 215.423 905.195 215.418 905.196C210.871 906.066 206.127 905.385 201.941 903.257C197.75 901.126 194.362 897.669 192.314 893.436C190.267 889.203 189.679 884.439 190.642 879.903C191.604 875.369 194.06 871.322 197.618 868.403C197.619 868.402 197.621 868.401 197.622 868.399L478.388 650.855L478.828 650.514L478.443 650.113L286.544 450.084C283.96 447.389 282.126 444.069 281.231 440.466C280.335 436.864 280.412 433.11 281.451 429.592C282.489 426.074 284.453 422.918 287.138 420.45C289.823 417.981 293.133 416.288 296.729 415.545L296.737 415.544L296.745 415.542L956.94 256.388C956.944 256.387 956.949 256.386 956.954 256.386C961.54 255.565 966.305 256.317 970.483 258.525C974.665 260.734 978.014 264.273 979.988 268.57C981.963 272.867 982.448 277.671 981.37 282.207C980.291 286.741 977.712 290.746 974.049 293.578C974.048 293.579 974.046 293.58 974.045 293.581L686.884 503.695Z" fill="black" stroke="black"/>
</mask>
<g mask="url(#mask0_4235_10)">
<g filter="url(#filter1_f_4235_10)">
<path d="M433.407 433.728L577.984 488.188C459.449 802.862 509.942 1114.17 690.552 1182.2L595.665 1434.09C335.353 1336.04 262.563 887.266 433.407 433.728Z" fill="url(#paint0_linear_4235_10)"/>
<path d="M508.772 462.117L630.291 507.892C530.685 772.316 573.125 1033.97 724.894 1091.14L645.14 1302.86C426.348 1220.45 365.202 843.252 508.772 462.117Z" fill="url(#paint1_linear_4235_10)"/>
<path d="M376.455 585.032L521.032 639.493C639.567 324.819 882.899 124.196 1063.51 192.23L1158.39 -59.6638C898.082 -157.721 547.3 131.493 376.455 585.032Z" fill="url(#paint2_linear_4235_10)"/>
<path d="M214.479 613.014L359.056 667.475C477.591 352.801 720.923 152.178 901.533 220.213L996.419 -31.6815C736.107 -129.739 385.324 159.475 214.479 613.014Z" fill="url(#paint3_linear_4235_10)"/>
</g>
<g filter="url(#filter2_f_4235_10)">
<path d="M554.292 529.567L614.672 552.312C565.168 683.73 586.255 813.741 661.684 842.154L622.056 947.353C513.341 906.401 482.941 718.98 554.292 529.567Z" fill="url(#paint4_linear_4235_10)"/>
<path d="M954.553 646.052L946.064 748.052C724.113 729.578 534.9 818.196 524.297 945.587L346.585 930.795C361.87 747.146 634.639 619.425 954.553 646.052Z" fill="url(#paint5_linear_4235_10)"/>
<path d="M983.552 535.524L975.062 637.523C753.111 619.05 563.899 707.668 553.295 835.058L375.583 820.267C390.869 636.618 663.637 508.896 983.552 535.524Z" fill="url(#paint6_linear_4235_10)"/>
<path d="M676.871 701.456L668.381 803.456C446.431 784.982 257.218 873.6 246.615 1000.99L68.9024 986.199C84.188 802.55 356.956 674.829 676.871 701.456Z" fill="url(#paint7_linear_4235_10)"/>
<path d="M530.507 592.757L590.887 615.502C640.391 484.083 742.014 400.297 817.442 428.71L857.07 323.511C748.355 282.559 601.857 403.344 530.507 592.757Z" fill="url(#paint8_linear_4235_10)"/>
<path d="M671.906 528.252L732.286 550.996C781.791 419.578 883.414 335.792 958.842 364.205L998.47 259.006C889.755 218.054 743.257 338.839 671.906 528.252Z" fill="url(#paint9_linear_4235_10)"/>
</g>
</g>
</g>
<defs>
<filter id="filter0_f_4235_10" x="89.6909" y="155.562" width="992.74" height="850.502" filterUnits="userSpaceOnUse" color-interpolation-filters="sRGB">
<feFlood flood-opacity="0" result="BackgroundImageFix"/>
<feBlend mode="normal" in="SourceGraphic" in2="BackgroundImageFix" result="shape"/>
<feGaussianBlur stdDeviation="50" result="effect1_foregroundBlur_4235_10"/>
</filter>
<filter id="filter1_f_4235_10" x="57.4408" y="-235.803" width="1257.99" height="1826.94" filterUnits="userSpaceOnUse" color-interpolation-filters="sRGB">
<feFlood flood-opacity="0" result="BackgroundImageFix"/>
<feBlend mode="normal" in="SourceGraphic" in2="BackgroundImageFix" result="shape"/>
<feGaussianBlur stdDeviation="78.5193" result="effect1_foregroundBlur_4235_10"/>
</filter>
<filter id="filter2_f_4235_10" x="-9.617" y="172.509" width="1086.61" height="907.001" filterUnits="userSpaceOnUse" color-interpolation-filters="sRGB">
<feFlood flood-opacity="0" result="BackgroundImageFix"/>
<feBlend mode="normal" in="SourceGraphic" in2="BackgroundImageFix" result="shape"/>
<feGaussianBlur stdDeviation="39.2597" result="effect1_foregroundBlur_4235_10"/>
</filter>
<linearGradient id="paint0_linear_4235_10" x1="669.474" y1="522.642" x2="359.626" y2="1345.19" gradientUnits="userSpaceOnUse">
<stop stop-color="#9403FD"/>
<stop offset="1" stop-color="#00ADFE"/>
</linearGradient>
<linearGradient id="paint1_linear_4235_10" x1="707.15" y1="536.833" x2="446.754" y2="1228.1" gradientUnits="userSpaceOnUse">
<stop stop-color="#9403FD"/>
<stop offset="1" stop-color="#00ADFE"/>
</linearGradient>
<linearGradient id="paint2_linear_4235_10" x1="612.519" y1="673.967" x2="922.367" y2="-148.583" gradientUnits="userSpaceOnUse">
<stop stop-color="#FF12DC"/>
<stop offset="1" stop-color="#FFB912"/>
</linearGradient>
<linearGradient id="paint3_linear_4235_10" x1="450.543" y1="701.95" x2="760.391" y2="-120.601" gradientUnits="userSpaceOnUse">
<stop stop-color="#FF12DC"/>
<stop offset="1" stop-color="#FFB912"/>
</linearGradient>
<linearGradient id="paint4_linear_4235_10" x1="652.881" y1="566.701" x2="523.478" y2="910.226" gradientUnits="userSpaceOnUse">
<stop stop-color="#9403FD"/>
<stop offset="1" stop-color="#00ADFE"/>
</linearGradient>
<linearGradient id="paint5_linear_4235_10" x1="940.702" y1="812.563" x2="360.469" y2="764.268" gradientUnits="userSpaceOnUse">
<stop stop-color="#9403FD"/>
<stop offset="1" stop-color="#00ADFE"/>
</linearGradient>
<linearGradient id="paint6_linear_4235_10" x1="969.7" y1="702.034" x2="389.468" y2="653.74" gradientUnits="userSpaceOnUse">
<stop stop-color="#9403FD"/>
<stop offset="1" stop-color="#00ADFE"/>
</linearGradient>
<linearGradient id="paint7_linear_4235_10" x1="663.02" y1="867.966" x2="82.7869" y2="819.672" gradientUnits="userSpaceOnUse">
<stop stop-color="#9403FD"/>
<stop offset="1" stop-color="#00ADFE"/>
</linearGradient>
<linearGradient id="paint8_linear_4235_10" x1="629.094" y1="629.899" x2="758.497" y2="286.375" gradientUnits="userSpaceOnUse">
<stop stop-color="#FF12DC"/>
<stop offset="1" stop-color="#FFB912"/>
</linearGradient>
<linearGradient id="paint9_linear_4235_10" x1="770.494" y1="565.394" x2="899.897" y2="221.87" gradientUnits="userSpaceOnUse">
<stop stop-color="#FF12DC"/>
<stop offset="1" stop-color="#FFB912"/>
</linearGradient>
</defs>
</svg>
